<?xml version="1.0" standalone="no"?>
<!DOCTYPE svg PUBLIC "-//W3C//DTD SVG 20010904//EN"
 "http://www.w3.org/TR/2001/REC-SVG-20010904/DTD/svg10.dtd">
<svg version="1.0" xmlns="http://www.w3.org/2000/svg"
 width="600.000000pt" height="600.000000pt" viewBox="0 0 600.000000 600.000000"
 preserveAspectRatio="xMidYMid meet">
<g transform="translate(0.000000,600.000000) scale(0.100000,-0.100000)"
fill="#000000" stroke="none">
<path d="M2856 5945 c-138 -39 -265 -130 -426 -306 -199 -218 -361 -372 -426
-407 -113 -59 -148 -63 -496 -60 -356 3 -379 0 -528 -74 -155 -78 -264 -212
-311 -382 -24 -89 -28 -245 -10 -371 6 -38 20 -131 31 -205 31 -208 25 -295
-27 -410 -20 -45 -64 -94 -238 -265 -116 -115 -230 -235 -253 -265 -92 -125
-133 -245 -133 -393 0 -110 18 -186 68 -287 51 -103 202 -253 377 -375 313
-218 361 -261 417 -374 39 -79 57 -189 74 -462 20 -322 43 -432 116 -569 63
-118 195 -238 331 -299 185 -84 381 -90 598 -18 52 17 203 86 336 152 380 192
471 221 683 213 111 -4 139 -9 231 -40 58 -20 224 -95 369 -167 287 -143 400
-185 545 -202 217 -27 435 45 593 194 166 158 224 311 244 637 21 372 36 465
86 570 38 80 144 179 323 300 334 228 452 354 511 550 41 136 27 326 -33 444
-50 99 -114 175 -322 381 -241 238 -262 268 -286 393 -16 78 -10 163 26 382
20 122 28 202 28 305 0 131 -2 146 -30 225 -55 157 -148 263 -295 340 -135 70
-172 75 -516 72 -346 -3 -400 4 -503 66 -102 62 -164 119 -342 315 -223 247
-321 327 -464 379 -75 28 -272 35 -348 13z m250 -415 c62 -30 120 -85 259
-244 275 -315 437 -441 640 -497 112 -30 234 -37 485 -26 198 8 233 7 290 -7
79 -20 127 -57 159 -120 32 -64 31 -156 -6 -352 -23 -128 -27 -175 -28 -334 0
-212 11 -271 76 -405 55 -115 122 -198 277 -343 267 -248 305 -298 305 -397 0
-106 -76 -196 -300 -355 -341 -241 -416 -315 -507 -496 -71 -143 -99 -285
-116 -599 -13 -229 -24 -308 -49 -369 -48 -112 -163 -186 -301 -194 -118 -7
-196 20 -510 173 -407 199 -560 242 -823 232 -231 -8 -389 -59 -747 -240 -242
-122 -335 -156 -446 -164 -179 -12 -321 80 -369 240 -10 32 -20 128 -26 247
-18 361 -50 533 -128 688 -78 155 -178 256 -421 427 -177 125 -227 164 -293
233 -67 71 -87 112 -87 179 1 97 17 118 356 444 177 170 251 294 290 486 23
112 14 369 -20 568 -37 215 -34 288 16 361 12 18 40 44 61 58 69 44 126 50
387 38 261 -12 384 -5 495 29 201 61 351 177 610 474 149 171 221 240 277 265
58 26 139 26 194 0z"/>
<path d="M2082 4320 c-285 -39 -508 -253 -594 -570 -20 -75 -23 -108 -23 -275
0 -188 0 -191 32 -280 88 -253 255 -404 483 -437 170 -25 354 43 488 180 42
44 42 44 42 17 0 -40 -47 -245 -77 -334 -56 -167 -152 -321 -271 -432 -92 -86
-179 -138 -314 -189 -129 -50 -154 -75 -127 -134 17 -37 59 -50 142 -43 287
25 627 245 816 527 197 295 283 643 253 1026 -24 295 -94 513 -222 686 -138
187 -389 290 -628 258z m174 -179 c112 -51 194 -209 229 -441 18 -112 19 -342
4 -425 -30 -165 -148 -278 -290 -278 -135 0 -245 117 -301 321 -18 65 -21 106
-22 267 0 217 18 319 76 427 68 127 192 180 304 129z"/>
<path d="M4030 4295 c-329 -86 -651 -363 -825 -712 -193 -387 -216 -931 -56
-1303 91 -211 243 -363 439 -439 62 -23 79 -25 222 -26 144 0 160 2 228 27
259 96 429 314 488 624 26 139 16 389 -20 509 -87 289 -290 458 -551 458 -151
0 -261 -48 -381 -165 l-82 -79 15 78 c53 288 177 527 370 714 108 105 172 147
273 180 80 27 110 52 110 94 0 70 -66 82 -230 40z m-125 -1104 c43 -19 114
-90 138 -137 80 -156 96 -519 33 -766 -49 -194 -121 -280 -244 -295 -87 -10
-158 29 -223 123 -139 203 -159 688 -37 927 69 136 216 202 333 148z"/>
</g>
</svg>
