<?xml version="1.0" encoding="UTF-8" standalone="no"?>
<!DOCTYPE svg PUBLIC "-//W3C//DTD SVG 1.1//EN" "http://www.w3.org/Graphics/SVG/1.1/DTD/svg11.dtd">
<svg width="100%" height="100%" viewBox="0 0 1026 267" version="1.1" xmlns="http://www.w3.org/2000/svg" xmlns:xlink="http://www.w3.org/1999/xlink" xml:space="preserve" xmlns:serif="http://www.serif.com/" style="fill-rule:evenodd;clip-rule:evenodd;stroke-linejoin:round;stroke-miterlimit:2;">
    <g transform="matrix(1,0,0,1,-347.203003,-2084.688009)">
        <g transform="matrix(0.073896,0,0,0.07362,488.324413,2218)">
            <g transform="matrix(1,0,0,1,-1909.722917,-1810.808333)">
                <g id="Layer" transform="matrix(4.166667,0,0,4.166667,-223.61125,-322.525833)">
                    <path d="M484.667,80.469C476,82.802 467.833,86.302 460.167,90.969C452.5,95.635 445.667,101.135 439.667,107.469C433.667,113.802 423.333,127.135 408.667,147.469C394,167.802 383.833,180.802 378.167,186.469C372.5,192.135 367.833,196.135 364.167,198.469C360.5,200.802 356.5,202.802 352.167,204.469C347.833,206.135 342,207.635 334.667,208.969C327.333,210.302 312.667,210.302 290.667,208.969C268.667,207.635 250.833,207.135 237.167,207.469C223.5,207.802 213.667,208.802 207.667,210.469C201.667,212.135 196.667,213.969 192.667,215.969C188.667,217.969 182.667,222.469 174.667,229.469C166.667,236.469 160.5,243.635 156.167,250.969C151.833,258.302 148.667,266.135 146.667,274.469C144.667,282.802 143.833,292.302 144.167,302.969C144.5,313.635 146.833,330.635 151.167,353.969C155.5,377.302 157.333,394.469 156.667,405.469C156,416.469 154.333,425.302 151.667,431.969C149,438.635 146.167,444.135 143.167,448.469C140.167,452.802 129,464.302 109.667,482.969C90.333,501.635 78.167,514.469 73.167,521.469C68.167,528.469 64.167,535.635 61.167,542.969C58.167,550.302 56.167,556.635 55.167,561.969C54.167,567.302 53.667,573.135 53.667,579.469C53.667,585.802 54.167,591.635 55.167,596.969C56.167,602.302 58.5,609.135 62.167,617.469C65.833,625.802 71.167,633.969 78.167,641.969C85.167,649.969 93.5,657.469 103.167,664.469C112.833,671.469 127.667,680.469 147.667,691.469C167.667,702.469 180.667,711.302 186.667,717.969C192.667,724.635 197.5,733.302 201.167,743.969C204.833,754.635 208.5,774.635 212.167,803.969C215.833,833.302 219,852.969 221.667,862.969C224.333,872.969 227.167,881.135 230.167,887.469C233.167,893.802 236.333,899.302 239.667,903.969C243,908.635 246.5,912.802 250.167,916.469C253.833,920.135 258.5,923.969 264.167,927.969C269.833,931.969 278.167,935.969 289.167,939.969C300.167,943.969 309.5,946.135 317.167,946.469C324.833,946.802 332.167,946.469 339.167,945.469C346.167,944.469 354.833,942.135 365.167,938.469C375.5,934.802 395.333,925.469 424.667,910.469C454,895.469 473.833,886.635 484.167,883.969C494.5,881.302 503.833,879.969 512.167,879.969C520.5,879.969 527.833,880.635 534.167,881.969C540.5,883.302 548.5,885.802 558.167,889.469C567.833,893.135 581.167,899.635 598.167,908.969C615.167,918.302 630.833,926.135 645.167,932.469C659.5,938.802 671,942.802 679.667,944.469C688.333,946.135 697.833,946.635 708.167,945.969C718.5,945.302 726.667,943.969 732.667,941.969C738.667,939.969 745.167,936.969 752.167,932.969C759.167,928.969 766.833,922.635 775.167,913.969C783.5,905.302 789.333,897.802 792.667,891.469C796,885.135 798.833,878.302 801.167,870.969C803.5,863.635 806.667,844.135 810.667,812.469C814.667,780.802 817.5,761.469 819.167,754.469C820.833,747.469 822.833,741.302 825.167,735.969C827.5,730.635 832,724.469 838.667,717.469C845.333,710.469 859.667,700.802 881.667,688.469C903.667,676.135 917.833,667.635 924.167,662.969C930.5,658.302 936.5,653.135 942.167,647.469C947.833,641.802 952.833,635.469 957.167,628.469C961.5,621.469 964.667,614.969 966.667,608.969C968.667,602.969 969.833,594.635 970.167,583.969C970.5,573.302 970.333,566.135 969.667,562.469C969,558.802 967.833,554.469 966.167,549.469C964.5,544.469 961.167,537.802 956.167,529.469C951.167,521.135 938.833,507.302 919.167,487.969C899.5,468.635 888.167,456.969 885.167,452.969C882.167,448.969 879.167,443.969 876.167,437.969C873.167,431.969 871,426.302 869.667,420.969C868.333,415.635 867.667,407.635 867.667,396.969C867.667,386.302 869.833,370.469 874.167,349.469C878.5,328.469 880.833,313.302 881.167,303.969C881.5,294.635 880.5,285.135 878.167,275.469C875.833,265.802 872.833,257.802 869.167,251.469C865.5,245.135 862.333,240.469 859.667,237.469C857,234.469 852.333,230.469 845.667,225.469C839,220.469 830.667,216.302 820.667,212.969C810.667,209.635 799.5,207.802 787.167,207.469C774.833,207.135 757.833,207.635 736.167,208.969C714.5,210.302 700,210.469 692.667,209.469C685.333,208.469 679,206.969 673.667,204.969C668.333,202.969 661.667,198.802 653.667,192.469C645.667,186.135 632.667,170.802 614.667,146.469C596.667,122.135 584.667,107.302 578.667,101.969C572.667,96.635 566.667,92.302 560.667,88.969C554.667,85.635 548.5,82.969 542.167,80.969C535.833,78.969 526.833,77.802 515.167,77.469C503.5,77.135 493.333,78.135 484.667,80.469ZM516.667,133.969C522,134.635 526.833,136.135 531.167,138.469C535.5,140.802 540.333,144.802 545.667,150.469C551,156.135 556.167,162.802 561.167,170.469C566.167,178.135 573.833,188.469 584.167,201.469C594.5,214.469 604.333,225.135 613.667,233.469C623,241.802 631.167,247.969 638.167,251.969C645.167,255.969 653,259.302 661.667,261.969C670.333,264.635 677.167,266.302 682.167,266.969C687.167,267.635 706.5,267.302 740.167,265.969C773.833,264.635 793,264.635 797.667,265.969C802.333,267.302 806.5,269.302 810.167,271.969C813.833,274.635 817,278.802 819.667,284.469C822.333,290.135 823.667,295.802 823.667,301.469C823.667,307.135 821.333,321.302 816.667,343.969C812,366.635 809.5,382.802 809.167,392.469C808.833,402.135 809.5,412.135 811.167,422.469C812.833,432.802 814.833,441.135 817.167,447.469C819.5,453.802 822.667,460.469 826.667,467.469C830.667,474.469 835.333,481.302 840.667,487.969C846,494.635 856.833,505.802 873.167,521.469C889.5,537.135 899.333,547.302 902.667,551.969C906,556.635 908.333,560.635 909.667,563.969C911,567.302 911.833,571.802 912.167,577.469C912.5,583.135 912.333,587.135 911.667,589.469C911,591.802 909.833,594.469 908.167,597.469C906.5,600.469 903.667,603.969 899.667,607.969C895.667,611.969 881.333,621.135 856.667,635.469C832,649.802 814.667,661.469 804.667,670.469C794.667,679.469 788.333,685.802 785.667,689.469C783,693.135 779.5,699.469 775.167,708.469C770.833,717.469 767.5,726.135 765.167,734.469C762.833,742.802 760,760.635 756.667,787.969C753.333,815.302 750.667,833.302 748.667,841.969C746.667,850.635 743.333,858.469 738.667,865.469C734,872.469 728.667,877.635 722.667,880.969C716.667,884.302 710,886.135 702.667,886.469C695.333,886.802 688.667,886.135 682.667,884.469C676.667,882.802 661.333,875.635 636.667,862.969C612,850.302 595.333,842.135 586.667,838.469C578,834.802 569.833,831.802 562.167,829.469C554.5,827.135 546,825.302 536.667,823.969C527.333,822.635 517.167,822.135 506.167,822.469C495.167,822.802 482.667,824.802 468.667,828.469C454.667,832.135 441,836.969 427.667,842.969C414.333,848.969 399,856.635 381.667,865.969C364.333,875.302 352.833,880.969 347.167,882.969C341.5,884.969 334.333,886.135 325.667,886.469C317,886.802 311.167,886.469 308.167,885.469C305.167,884.469 300.833,881.635 295.167,876.969C289.5,872.302 285,866.469 281.667,859.469C278.333,852.469 274.167,831.135 269.167,795.469C264.167,759.802 260.167,737.302 257.167,727.969C254.167,718.635 251.167,711.135 248.167,705.469C245.167,699.802 241.833,694.469 238.167,689.469C234.5,684.469 230.167,679.469 225.167,674.469C220.167,669.469 214.333,664.469 207.667,659.469C201,654.469 187,645.969 165.667,633.969C144.333,621.969 131.333,613.802 126.667,609.469C122,605.135 118.667,601.135 116.667,597.469C114.667,593.802 113.5,588.469 113.167,581.469C112.833,574.469 113.5,568.802 115.167,564.469C116.833,560.135 119.167,555.969 122.167,551.969C125.167,547.969 136.167,536.469 155.167,517.469C174.167,498.469 186.333,485.135 191.667,477.469C197,469.802 201.5,461.802 205.167,453.469C208.833,445.135 211.5,436.802 213.167,428.469C214.833,420.135 215.667,410.302 215.667,398.969C215.667,387.635 213.167,368.802 208.167,342.469C203.167,316.135 200.833,300.802 201.167,296.469C201.5,292.135 202.833,287.635 205.167,282.969C207.5,278.302 210.833,274.469 215.167,271.469C219.5,268.469 223.833,266.469 228.167,265.469C232.5,264.469 251.5,264.635 285.167,265.969C318.833,267.302 342.333,266.302 355.667,262.969C369,259.635 380.5,254.969 390.167,248.969C399.833,242.969 408.5,236.302 416.167,228.969C423.833,221.635 435.333,207.635 450.667,186.969C466,166.302 475.833,153.635 480.167,148.969C484.5,144.302 488.333,140.969 491.667,138.969C495,136.969 498.667,135.469 502.667,134.469C506.667,133.469 511.333,133.302 516.667,133.969ZM356.667,339.969C348,341.969 340.167,344.802 333.167,348.469C326.167,352.135 319.167,357.135 312.167,363.469C305.167,369.802 299.167,376.802 294.167,384.469C289.167,392.135 285.167,399.969 282.167,407.969C279.167,415.969 276.833,424.469 275.167,433.469C273.5,442.469 272.667,452.969 272.667,464.969C272.667,476.969 273.5,487.302 275.167,495.969C276.833,504.635 279.833,513.802 284.167,523.469C288.5,533.135 293.333,541.135 298.667,547.469C304,553.802 309.167,558.802 314.167,562.469C319.167,566.135 326.167,569.635 335.167,572.969C344.167,576.302 353,577.969 361.667,577.969C370.333,577.969 377.333,577.302 382.667,575.969C388,574.635 395.333,571.302 404.667,565.969C414,560.635 420.5,556.135 424.167,552.469C427.833,548.802 430.333,545.635 431.667,542.969C432.333,541.635 433,540.302 433.667,538.969C433.833,539.969 434,540.969 434.167,541.969C434.5,543.969 433.167,552.135 430.167,566.469C427.167,580.802 424.167,592.135 421.167,600.469C418.167,608.802 415,616.135 411.667,622.469C408.333,628.802 404.333,635.135 399.667,641.469C395,647.802 389,654.469 381.667,661.469C374.333,668.469 366.667,674.302 358.667,678.969C350.667,683.635 341.667,687.635 331.667,690.969C321.667,694.302 316,696.969 314.667,698.969C313.333,700.969 312.667,703.302 312.667,705.969C312.667,708.635 314,711.135 316.667,713.469C319.333,715.802 325.167,716.635 334.167,715.969C343.167,715.302 352.667,713.302 362.667,709.969C372.667,706.635 383.5,701.635 395.167,694.969C406.833,688.302 416.5,681.802 424.167,675.469C431.833,669.135 439.5,661.469 447.167,652.469C454.833,643.469 462,632.969 468.667,620.969C475.333,608.969 480.667,597.135 484.667,585.469C488.667,573.802 491.5,563.635 493.167,554.969C494.833,546.302 496,538.635 496.667,531.969C497.333,525.302 497.333,512.802 496.667,494.469C496,476.135 494.333,460.969 491.667,448.969C489,436.969 484.833,424.469 479.167,411.469C473.5,398.469 468.833,389.302 465.167,383.969C461.5,378.635 457.167,373.469 452.167,368.469C447.167,363.469 441.833,358.969 436.167,354.969C430.5,350.969 423.167,347.302 414.167,343.969C405.167,340.635 395.5,338.635 385.167,337.969C374.833,337.302 365.333,337.969 356.667,339.969ZM671.167,341.469C662.833,343.135 653.333,346.302 642.667,350.969C632,355.635 621.833,361.302 612.167,367.969C602.5,374.635 594.667,380.802 588.667,386.469C582.667,392.135 575.333,400.635 566.667,411.969C558,423.302 551,433.969 545.667,443.969C540.333,453.969 536.167,463.135 533.167,471.469C530.167,479.802 527.5,488.802 525.167,498.469C522.833,508.135 521,518.302 519.667,528.969C518.333,539.635 517.667,552.135 517.667,566.469C517.667,580.802 518.333,592.635 519.667,601.969C521,611.302 523.333,621.302 526.667,631.969C530,642.635 534.333,652.635 539.667,661.969C545,671.302 550.5,678.969 556.167,684.969C561.833,690.969 569.167,696.802 578.167,702.469C587.167,708.135 595.5,712.135 603.167,714.469C610.833,716.802 619.333,718.135 628.667,718.469C638,718.802 646,718.302 652.667,716.969C659.333,715.635 666,713.635 672.667,710.969C679.333,708.302 685.667,704.969 691.667,700.969C697.667,696.969 703,692.635 707.667,687.969C712.333,683.302 716.5,678.302 720.167,672.969C723.833,667.635 727.333,661.469 730.667,654.469C734,647.469 736.833,639.469 739.167,630.469C741.5,621.469 743,610.302 743.667,596.969C744.333,583.635 743.5,571.135 741.167,559.469C738.833,547.802 736.5,539.302 734.167,533.969C731.833,528.635 728.833,523.135 725.167,517.469C721.5,511.802 717.833,506.969 714.167,502.969C710.5,498.969 706.167,495.135 701.167,491.469C696.167,487.802 689.333,484.469 680.667,481.469C672,478.469 664.833,476.802 659.167,476.469C653.5,476.135 647.667,476.469 641.667,477.469C635.667,478.469 629.833,480.135 624.167,482.469C618.5,484.802 613.667,487.302 609.667,489.969C605.667,492.635 600.333,497.635 593.667,504.969C590.333,508.635 587,512.302 583.667,515.969C584.333,511.635 585,507.302 585.667,502.969C587,494.302 589.333,484.469 592.667,473.469C596,462.469 599.333,453.302 602.667,445.969C606,438.635 610,431.135 614.667,423.469C619.333,415.802 623.5,409.635 627.167,404.969C630.833,400.302 636.833,394.135 645.167,386.469C653.5,378.802 660.5,373.302 666.167,369.969C671.833,366.635 677.667,364.135 683.667,362.469C689.667,360.802 693.667,359.135 695.667,357.469C697.667,355.802 698.833,353.469 699.167,350.469C699.5,347.469 699.333,345.302 698.667,343.969C698,342.635 696.667,341.469 694.667,340.469C692.667,339.469 690.333,338.969 687.667,338.969C685,338.969 679.5,339.802 671.167,341.469ZM379.167,361.969C382.833,361.969 387,362.969 391.667,364.969C396.333,366.969 400.833,370.302 405.167,374.969C409.5,379.635 413.833,386.802 418.167,396.469C422.5,406.135 425.833,417.469 428.167,430.469C430.5,443.469 431.667,457.302 431.667,471.969C431.667,486.635 430.833,497.469 429.167,504.469C427.5,511.469 424.333,518.135 419.667,524.469C415,530.802 409.167,535.469 402.167,538.469C395.167,541.469 389.333,542.802 384.667,542.469C380,542.135 375.667,541.135 371.667,539.469C367.667,537.802 363.333,534.635 358.667,529.969C354,525.302 349.833,518.969 346.167,510.969C342.5,502.969 339.667,493.469 337.667,482.469C335.667,471.469 334.833,458.635 335.167,443.969C335.5,429.302 336.833,416.969 339.167,406.969C341.5,396.969 343.833,389.635 346.167,384.969C348.5,380.302 351,376.469 353.667,373.469C356.333,370.469 360.333,367.802 365.667,365.469C371,363.135 375.5,361.969 379.167,361.969ZM633.167,508.969C637.5,508.969 641.333,509.469 644.667,510.469C648,511.469 652.167,514.135 657.167,518.469C662.167,522.802 666.333,528.469 669.667,535.469C673,542.469 675.5,550.969 677.167,560.969C678.833,570.969 679.5,584.135 679.167,600.469C678.833,616.802 677.333,630.969 674.667,642.969C672,654.969 669.167,663.802 666.167,669.469C663.167,675.135 660.167,679.469 657.167,682.469C654.167,685.469 649.833,687.969 644.167,689.969C638.5,691.969 633.667,692.802 629.667,692.469C625.667,692.135 622.167,691.302 619.167,689.969C616.167,688.635 612,685.135 606.667,679.469C601.333,673.802 596.833,665.969 593.167,655.969C589.5,645.969 587,635.969 585.667,625.969C584.333,615.969 583.833,604.302 584.167,590.969C584.5,577.635 586,565.802 588.667,555.469C591.333,545.135 594.167,537.469 597.167,532.469C600.167,527.469 603,523.635 605.667,520.969C608.333,518.302 612.5,515.635 618.167,512.969C623.833,510.302 628.833,508.969 633.167,508.969Z" style="fill:white;fill-rule:nonzero;"/>
                </g>
            </g>
        </g>
        <g transform="matrix(1.733943,0,0,1.733943,292.746614,1636.082684)">
            <path d="M283.124,361.564C277.055,368.336 267.95,370.997 257.875,370.997C254.961,370.997 252.533,370.755 251.198,369.667C249.377,368.215 249.377,365.434 249.377,357.935L249.377,303.876C249.377,301.82 249.984,300.973 252.412,300.973C263.095,300.973 269.893,301.578 275.841,304.722C288.708,311.495 291.258,326.007 291.258,336.166C291.258,345.962 288.83,355.275 283.124,361.564ZM290.408,300.852C281.546,295.652 270.985,292.991 249.741,292.991L229.469,292.991C227.041,292.991 225.827,294.079 225.827,295.531C225.827,297.587 227.891,297.95 229.833,299.159C233.232,301.215 233.232,303.876 233.232,310.043L233.232,356.726C233.232,365.071 232.625,367.49 231.897,369.183C231.168,370.876 229.833,372.327 227.769,373.537C226.312,374.383 225.099,375.109 225.099,376.681C225.099,378.495 226.919,379.342 229.347,379.342L257.51,379.342C294.414,379.342 308.738,357.089 308.738,335.199C308.738,321.291 302.547,308.108 290.408,300.852Z" style="fill:white;fill-rule:nonzero;"/>
            <path d="M333.26,338.101C333.26,335.32 336.901,322.379 348.191,322.379C356.082,322.379 360.33,328.305 360.33,333.385C360.33,337.86 357.417,339.311 351.347,339.311L334.474,339.311C333.502,339.311 333.26,339.069 333.26,338.101ZM371.741,363.499C368.464,363.499 364.458,369.667 353.168,369.667C347.341,369.667 341.514,367.611 337.387,361.926C333.381,356.363 333.138,350.074 333.138,348.139C333.138,347.293 333.624,346.809 334.595,346.809L365.55,346.809C373.926,346.809 375.504,343.906 375.504,338.464C375.504,333.264 373.077,326.007 366.643,320.686C361.908,316.816 355.839,314.881 349.526,314.881C344.549,314.881 339.572,316.09 335.202,318.509C323.427,325.04 317.6,337.497 317.6,349.591C317.6,353.944 318.45,358.298 319.906,362.289C324.884,375.23 336.294,380.551 347.705,380.551C354.503,380.551 361.301,378.616 366.521,375.23C370.649,372.569 374.291,368.578 374.291,366.038C374.291,364.829 373.441,363.499 371.741,363.499Z" style="fill:white;fill-rule:nonzero;"/>
            <path d="M383.756,362.652C383.756,367.732 384.97,372.69 387.52,375.109C390.797,378.011 398.566,380.672 407.185,380.672C413.255,380.672 419.81,379.342 425.151,375.714C431.464,371.602 434.256,365.434 434.256,359.75C434.256,355.517 432.678,351.405 429.764,348.381C424.544,342.818 416.533,341.125 408.763,338.585C402.694,336.65 399.538,334.352 399.538,330.361C399.538,326.128 403.301,322.621 409.249,322.621C416.897,322.621 420.66,328.91 422.966,332.538C424.302,334.715 425.151,335.32 427.337,335.32C430.736,335.32 431.1,331.329 431.1,328.063C431.1,324.919 430.614,320.565 426.365,318.025C423.695,316.332 418.111,314.881 411.798,314.881C406.7,314.881 401.237,315.849 396.624,318.388C389.462,322.379 385.942,329.152 385.942,335.441C385.942,339.915 387.641,344.148 391.04,347.051C397.352,352.493 407.428,354.186 413.619,356.605C418.839,358.661 420.296,361.443 420.296,364.345C420.296,368.82 416.168,372.69 409.128,372.69C404.029,372.69 399.173,369.667 394.682,363.741C391.404,359.508 390.312,357.331 387.641,357.331C385.699,357.331 383.756,358.177 383.756,362.652Z" style="fill:white;fill-rule:nonzero;"/>
            <path d="M468.37,298.191C468.37,294.926 461.45,288.032 458.173,288.032C454.895,288.032 448.097,294.926 448.097,298.191C448.097,301.336 454.895,308.229 458.173,308.229C461.45,308.229 468.37,301.336 468.37,298.191ZM471.404,373.537C469.584,372.327 468.127,370.876 467.277,369.183C466.427,367.49 465.82,364.829 465.82,356.484L465.82,318.509C465.82,315.728 464.606,314.881 462.907,314.881C461.45,314.881 460.358,315.486 458.051,316.332C454.895,317.542 450.282,318.872 446.033,319.719C443.241,320.323 442.392,321.291 442.392,322.742C442.392,324.314 444.212,325.04 445.669,325.645C447.854,326.491 449.068,327.459 449.918,329.031C450.889,330.845 450.889,333.506 450.889,337.86L450.889,356.484C450.889,364.829 450.282,367.49 449.432,369.304C448.704,370.997 447.126,372.448 445.184,373.537C443.727,374.383 442.634,375.23 442.634,376.681C442.634,378.495 444.455,379.342 446.64,379.342L469.948,379.342C472.133,379.342 473.954,378.495 473.954,376.681C473.954,375.23 472.861,374.504 471.404,373.537Z" style="fill:white;fill-rule:nonzero;"/>
            <path d="M508.551,322.137C515.956,322.137 519.597,330.966 519.597,339.432C519.597,347.051 516.198,352.977 509.886,352.977C504.545,352.977 498.718,346.93 498.718,335.199C498.718,328.426 501.631,322.137 508.551,322.137ZM542.177,320.444C542.177,316.211 540.113,314.639 536.471,314.639C531.13,314.639 532.222,320.686 528.459,320.686C527.367,320.686 526.395,319.96 523.846,318.63C519.112,316.09 514.256,314.881 509.036,314.881C494.348,315.002 483.18,325.403 483.18,337.98C483.18,347.172 488.278,353.944 495.804,357.573C496.047,357.694 496.169,357.815 496.169,358.056C496.169,358.177 496.047,358.298 495.804,358.419C490.949,360.354 487.186,364.345 487.186,369.062C487.186,374.141 491.677,378.858 500.296,380.188C506.366,381.156 513.528,380.914 519.597,381.156C525.667,381.398 528.702,382.97 528.702,386.477C528.702,391.315 521.783,395.427 510.372,395.427C498.596,395.427 491.798,391.194 491.798,385.147C491.798,382.123 493.255,381.035 493.255,379.221C493.255,377.89 491.92,377.044 489.856,377.044C486.579,377.044 482.937,379.1 480.873,382.607C480.023,384.058 479.538,385.872 479.538,387.687C479.538,390.71 480.873,394.096 484.151,396.636C489.006,400.506 497.747,402.683 508.551,402.683C528.095,402.683 537.685,395.91 540.356,387.203C540.841,385.631 541.084,384.058 541.084,382.486C541.084,375.593 536.107,370.029 526.517,368.82C520.204,367.973 513.406,368.578 507.58,368.094C502.117,367.732 499.81,366.401 499.81,364.345C499.81,362.289 501.874,361.08 505.03,360.717C506.244,360.596 508.793,360.596 510.372,360.475C524.089,359.87 535.014,350.558 535.014,337.618C535.014,334.11 534.407,330.24 532.465,326.854C533.193,326.975 533.679,326.975 534.165,326.975C539.142,326.975 542.177,324.435 542.177,320.444Z" style="fill:white;fill-rule:nonzero;"/>
            <path d="M619.989,373.537C618.047,372.448 616.712,370.876 615.862,369.183C615.012,367.49 614.405,364.829 614.405,356.363L614.405,339.311C614.405,331.813 613.313,326.975 610.642,322.984C607,317.663 600.809,314.881 594.133,314.881C585.757,314.881 578.837,318.872 574.467,325.282C574.224,325.645 574.103,325.887 573.86,325.887C573.496,325.887 573.375,325.645 573.375,325.282L573.375,318.509C573.375,315.728 572.039,314.881 570.34,314.881C568.64,314.881 567.426,315.607 565.605,316.332C562.449,317.663 557.836,318.872 553.709,319.719C550.917,320.323 549.946,321.291 549.946,322.742C549.946,324.556 552.131,325.161 553.345,325.645C555.408,326.37 556.744,327.217 557.593,328.91C558.565,330.845 558.565,333.506 558.565,337.86L558.565,356.363C558.565,364.829 557.958,367.49 557.229,369.183C556.38,370.997 554.68,372.448 552.981,373.537C551.645,374.383 550.431,375.109 550.431,376.56C550.431,378.495 552.131,379.342 554.437,379.342L577.502,379.342C579.808,379.342 581.508,378.495 581.508,376.56C581.508,375.109 580.537,374.504 578.959,373.537C577.138,372.448 575.681,370.997 574.831,369.183C573.982,367.49 573.375,364.829 573.375,356.363C573.375,340.883 574.589,334.352 578.959,329.998C581.629,327.338 585.028,326.37 588.063,326.37C595.104,326.37 599.474,331.208 599.474,339.432L599.474,356.363C599.474,364.829 598.867,367.49 598.017,369.183C597.168,370.876 595.711,372.327 593.769,373.537C592.433,374.383 591.219,375.109 591.219,376.56C591.219,378.495 593.04,379.342 595.225,379.342L618.533,379.342C620.839,379.342 622.66,378.495 622.66,376.56C622.66,375.109 621.568,374.383 619.989,373.537Z" style="fill:white;fill-rule:nonzero;"/>
        </g>
    </g>
</svg>
