<?xml version="1.0" encoding="UTF-8" standalone="no"?>
<!DOCTYPE svg PUBLIC "-//W3C//DTD SVG 1.1//EN" "http://www.w3.org/Graphics/SVG/1.1/DTD/svg11.dtd">
<svg width="100%" height="100%" viewBox="0 0 1650 455" version="1.1" xmlns="http://www.w3.org/2000/svg" xmlns:xlink="http://www.w3.org/1999/xlink" xml:space="preserve" xmlns:serif="http://www.serif.com/" style="fill-rule:evenodd;clip-rule:evenodd;stroke-linejoin:round;stroke-miterlimit:2;">
    <path d="M225.311,1.601C220.802,2.811 216.489,4.66 212.503,7.09C208.495,9.529 204.923,12.404 201.786,15.716C198.649,19.028 193.247,25.997 185.58,36.627C177.913,47.257 172.598,54.052 169.636,57.015C166.674,59.978 164.234,62.068 162.317,63.288C160.4,64.508 158.309,65.553 156.044,66.425C153.779,67.297 150.729,68.08 146.896,68.777C143.063,69.474 135.395,69.474 123.894,68.777C112.393,68.08 103.07,67.818 95.926,67.993C88.782,68.168 83.641,68.69 80.504,69.561C77.367,70.432 74.754,71.391 72.663,72.436C70.572,73.481 67.435,75.834 63.253,79.493C59.071,83.152 55.847,86.898 53.582,90.732C51.317,94.566 49.661,98.66 48.616,103.017C47.571,107.374 47.134,112.339 47.309,117.916C47.484,123.493 48.703,132.379 50.968,144.577C53.233,156.775 54.191,165.749 53.843,171.499C53.495,177.249 52.623,181.867 51.229,185.352C49.835,188.837 48.354,191.712 46.786,193.978C45.218,196.244 39.38,202.255 29.273,212.013C19.166,221.771 12.806,228.48 10.192,232.139C7.578,235.798 5.487,239.544 3.919,243.378C2.351,247.212 1.305,250.522 0.782,253.31C0.259,256.098 0,259.148 0,262.459C0,265.77 0.261,268.819 0.784,271.607C1.307,274.395 2.526,277.967 4.443,282.324C6.36,286.681 9.148,290.95 12.807,295.132C16.466,299.314 20.823,303.235 25.876,306.894C30.929,310.553 38.684,315.258 49.139,321.009C59.594,326.76 66.39,331.377 69.527,334.862C72.664,338.347 75.19,342.878 77.107,348.454C79.024,354.03 80.94,364.485 82.857,379.82C84.774,395.155 86.429,405.435 87.823,410.663C89.217,415.891 90.698,420.16 92.266,423.471C93.834,426.782 95.489,429.657 97.232,432.097C98.975,434.537 100.804,436.715 102.721,438.632C104.638,440.549 107.077,442.553 110.04,444.644C113.003,446.735 117.359,448.826 123.109,450.917C128.859,453.008 133.738,454.14 137.746,454.315C141.754,454.49 145.587,454.315 149.247,453.792C152.907,453.269 157.437,452.049 162.839,450.133C168.241,448.217 178.609,443.337 193.943,435.496C209.277,427.655 219.645,423.036 225.047,421.643C230.449,420.25 235.328,419.552 239.684,419.552C244.04,419.552 247.874,419.9 251.185,420.598C254.496,421.296 258.678,422.602 263.731,424.519C268.784,426.436 275.755,429.833 284.642,434.713C293.529,439.593 301.719,443.687 309.212,446.998C316.705,450.309 322.717,452.4 327.247,453.271C331.777,454.142 336.744,454.403 342.146,454.055C347.548,453.707 351.817,453.009 354.954,451.964C358.091,450.919 361.489,449.35 365.148,447.259C368.807,445.168 372.815,441.857 377.172,437.327C381.529,432.797 384.577,428.875 386.32,425.565C388.063,422.255 389.543,418.682 390.763,414.848C391.983,411.014 393.638,400.82 395.729,384.266C397.82,367.712 399.301,357.605 400.172,353.946C401.043,350.287 402.088,347.063 403.309,344.275C404.53,341.487 406.881,338.263 410.366,334.604C413.851,330.945 421.344,325.891 432.845,319.444C444.346,312.997 451.751,308.553 455.062,306.114C458.397,303.653 461.543,300.944 464.472,298.011C467.434,295.049 470.048,291.738 472.313,288.079C474.578,284.42 476.234,281.022 477.279,277.885C478.324,274.748 478.934,270.392 479.109,264.816C479.284,259.24 479.196,255.493 478.848,253.577C478.5,251.661 477.889,249.395 477.018,246.781C476.147,244.167 474.404,240.682 471.79,236.326C469.176,231.97 462.728,224.738 452.448,214.631C442.168,204.524 436.242,198.425 434.674,196.334C433.106,194.243 431.537,191.629 429.969,188.493C428.401,185.357 427.268,182.394 426.571,179.606C425.874,176.818 425.525,172.635 425.525,167.06C425.525,161.485 426.657,153.207 428.923,142.229C431.189,131.251 432.408,123.322 432.582,118.443C432.756,113.564 432.233,108.597 431.014,103.544C429.795,98.491 428.226,94.308 426.309,90.998C424.392,87.688 422.736,85.248 421.343,83.679C419.95,82.11 417.509,80.02 414.024,77.406C410.539,74.792 406.183,72.614 400.955,70.871C395.727,69.128 389.89,68.17 383.442,67.996C376.994,67.822 368.107,68.083 356.781,68.78C345.455,69.477 337.874,69.564 334.041,69.041C330.208,68.518 326.896,67.734 324.109,66.689C321.322,65.644 317.836,63.465 313.654,60.154C309.472,56.843 302.676,48.827 293.266,36.107C283.856,23.387 277.583,15.632 274.447,12.844C271.311,10.056 268.174,7.79 265.037,6.048C261.9,4.306 258.677,2.911 255.366,1.866C252.055,0.821 247.35,0.21 241.251,0.036C235.152,-0.138 229.837,0.384 225.307,1.604L225.311,1.601ZM242.039,29.569C244.827,29.917 247.353,30.701 249.619,31.921C251.885,33.141 254.411,35.232 257.199,38.194C259.987,41.156 262.688,44.641 265.302,48.649C267.916,52.657 271.923,58.059 277.326,64.855C282.729,71.651 287.868,77.227 292.748,81.583C297.628,85.939 301.896,89.163 305.556,91.254C309.216,93.345 313.31,95.087 317.841,96.482C322.372,97.877 325.944,98.747 328.558,99.096C331.172,99.445 341.278,99.27 358.878,98.573C376.478,97.876 386.497,97.876 388.937,98.573C391.377,99.27 393.555,100.315 395.472,101.71C397.389,103.105 399.044,105.282 400.438,108.245C401.832,111.208 402.529,114.169 402.529,117.132C402.529,120.095 401.309,127.5 398.87,139.349C396.431,151.198 395.123,159.649 394.949,164.703C394.775,169.757 395.123,174.984 395.995,180.386C396.867,185.788 397.911,190.144 399.132,193.455C400.353,196.766 402.007,200.251 404.098,203.91C406.189,207.569 408.628,211.141 411.417,214.627C414.206,218.113 419.868,223.949 428.407,232.14C436.946,240.331 442.086,245.645 443.829,248.084C445.572,250.523 446.791,252.614 447.488,254.357C448.185,256.1 448.62,258.452 448.795,261.414C448.97,264.376 448.882,266.467 448.534,267.687C448.186,268.907 447.575,270.301 446.704,271.869C445.833,273.437 444.352,275.267 442.261,277.358C440.17,279.449 432.677,284.241 419.782,291.734C406.887,299.227 397.826,305.326 392.598,310.031C387.37,314.736 384.059,318.047 382.666,319.963C381.273,321.879 379.442,325.191 377.177,329.895C374.912,334.599 373.169,339.13 371.949,343.487C370.729,347.844 369.248,357.166 367.506,371.455C365.764,385.744 364.369,395.153 363.324,399.684C362.279,404.215 360.536,408.31 358.096,411.969C355.656,415.628 352.868,418.329 349.732,420.072C346.596,421.815 343.11,422.773 339.277,422.947C335.444,423.121 331.958,422.772 328.822,421.901C325.686,421.03 317.669,417.283 304.775,410.662C291.881,404.041 283.167,399.771 278.637,397.854C274.107,395.937 269.837,394.369 265.829,393.149C261.821,391.929 257.377,390.971 252.499,390.274C247.621,389.577 242.305,389.315 236.555,389.49C230.805,389.665 224.27,390.71 216.951,392.627C209.632,394.544 202.488,397.07 195.518,400.207C188.548,403.344 180.532,407.351 171.471,412.231C162.41,417.111 156.398,420.072 153.436,421.118C150.474,422.164 146.727,422.773 142.197,422.948C137.667,423.123 134.617,422.948 133.049,422.425C131.481,421.902 129.215,420.421 126.253,417.982C123.291,415.543 120.938,412.493 119.196,408.834C117.454,405.175 115.275,394.022 112.661,375.377C110.047,356.732 107.956,344.969 106.388,340.09C104.82,335.211 103.251,331.29 101.683,328.328C100.146,325.416 98.399,322.621 96.455,319.964C94.538,317.35 92.273,314.736 89.659,312.123C87.045,309.51 83.995,306.895 80.511,304.282C77.027,301.669 69.707,297.225 58.555,290.952C47.403,284.679 40.606,280.409 38.167,278.144C35.728,275.879 33.985,273.787 32.939,271.871C31.893,269.955 31.283,267.166 31.109,263.507C30.935,259.848 31.283,256.885 32.155,254.62C33.027,252.355 34.246,250.177 35.814,248.085C37.382,245.993 43.133,239.982 53.065,230.05C62.997,220.118 69.357,213.147 72.146,209.139C74.898,205.195 77.261,200.993 79.203,196.593C81.119,192.236 82.514,187.88 83.385,183.524C84.256,179.168 84.692,174.027 84.692,168.102C84.692,162.177 83.385,152.332 80.771,138.566C78.157,124.8 76.937,116.784 77.112,114.519C77.287,112.254 77.983,109.901 79.203,107.462C80.423,105.023 82.165,103.019 84.431,101.45C86.697,99.881 88.961,98.836 91.227,98.313C93.493,97.79 103.425,97.877 121.024,98.574C138.623,99.271 150.908,98.748 157.879,97.006C164.85,95.264 170.861,92.824 175.914,89.687C180.967,86.55 185.498,83.065 189.506,79.232C193.514,75.399 199.525,68.079 207.541,57.276C215.557,46.473 220.697,39.85 222.963,37.411C225.229,34.972 227.232,33.229 228.975,32.183C230.718,31.137 232.634,30.353 234.725,29.831C236.816,29.309 239.255,29.221 242.044,29.57L242.039,29.569ZM158.397,137.258C153.866,138.304 149.771,139.785 146.112,141.701C142.453,143.617 138.793,146.231 135.134,149.542C131.475,152.853 128.338,156.512 125.724,160.52C123.11,164.528 121.019,168.623 119.451,172.805C117.883,176.987 116.663,181.431 115.792,186.135C114.921,190.839 114.485,196.329 114.485,202.602C114.485,208.875 114.92,214.277 115.792,218.808C116.664,223.339 118.231,228.13 120.497,233.184C122.763,238.238 125.289,242.419 128.077,245.73C130.865,249.041 133.566,251.654 136.18,253.571C138.794,255.488 142.453,257.317 147.158,259.06C151.863,260.803 156.48,261.674 161.011,261.674C165.542,261.674 169.201,261.325 171.989,260.628C174.777,259.931 178.61,258.188 183.49,255.4C188.37,252.612 191.767,250.259 193.684,248.343C195.601,246.427 196.907,244.77 197.605,243.377L198.651,241.286L198.912,242.854C199.086,243.9 198.389,248.168 196.821,255.662C195.253,263.156 193.684,269.079 192.116,273.436C190.548,277.793 188.892,281.626 187.15,284.937C185.408,288.248 183.316,291.558 180.877,294.869C178.438,298.18 175.301,301.665 171.467,305.324C167.633,308.983 163.626,312.033 159.443,314.472C155.26,316.911 150.556,319.002 145.328,320.745C140.1,322.488 137.138,323.882 136.441,324.927C135.744,325.972 135.395,327.192 135.395,328.586C135.395,329.98 136.092,331.287 137.486,332.507C138.88,333.727 141.929,334.162 146.634,333.814C151.339,333.466 156.305,332.42 161.533,330.677C166.761,328.934 172.424,326.32 178.523,322.836C184.622,319.352 189.675,315.953 193.683,312.642C197.691,309.331 201.699,305.323 205.707,300.618C209.715,295.913 213.461,290.424 216.946,284.151C220.431,277.878 223.219,271.691 225.31,265.593C227.401,259.495 228.882,254.179 229.753,249.649C230.624,245.119 231.234,241.11 231.583,237.625C231.932,234.14 231.931,227.605 231.583,218.021C231.235,208.437 230.363,200.508 228.969,194.235C227.575,187.962 225.396,181.427 222.434,174.631C219.472,167.835 217.032,163.043 215.115,160.255C213.198,157.467 210.933,154.766 208.319,152.152C205.705,149.538 202.917,147.186 199.955,145.095C196.993,143.004 193.159,141.087 188.454,139.345C183.749,137.603 178.696,136.557 173.294,136.208C167.892,135.859 162.926,136.208 158.395,137.254L158.397,137.258ZM322.806,138.042C318.449,138.913 313.483,140.569 307.907,143.008C302.32,145.453 296.981,148.429 291.963,151.895C286.909,155.38 282.815,158.604 279.678,161.566C276.541,164.528 272.707,168.971 268.177,174.896C263.647,180.821 259.987,186.397 257.199,191.624C254.411,196.851 252.233,201.643 250.664,206C249.095,210.357 247.702,215.061 246.482,220.115C245.262,225.169 244.304,230.483 243.607,236.059C242.91,241.635 242.561,248.169 242.561,255.663C242.561,263.157 242.909,269.342 243.607,274.221C244.305,279.1 245.523,284.328 247.266,289.904C249.009,295.48 251.274,300.707 254.062,305.587C256.85,310.467 259.725,314.474 262.688,317.611C265.651,320.748 269.484,323.797 274.189,326.759C278.894,329.721 283.25,331.812 287.258,333.032C291.266,334.252 295.709,334.948 300.588,335.123C305.467,335.298 309.649,335.036 313.134,334.339C316.619,333.642 320.104,332.596 323.589,331.202C327.074,329.808 330.385,328.065 333.521,325.974C336.657,323.883 339.445,321.617 341.885,319.178C344.325,316.739 346.503,314.124 348.42,311.337C350.337,308.55 352.166,305.325 353.909,301.666C355.652,298.007 357.132,293.825 358.352,289.12C359.572,284.415 360.356,278.577 360.704,271.607C361.052,264.637 360.617,258.102 359.397,252.003C358.177,245.904 356.957,241.46 355.738,238.673C354.519,235.886 352.95,233.009 351.033,230.047C349.116,227.085 347.199,224.558 345.283,222.467C343.367,220.376 341.101,218.372 338.487,216.455C335.873,214.538 332.301,212.796 327.77,211.227C323.239,209.658 319.493,208.787 316.531,208.613C313.569,208.439 310.519,208.613 307.383,209.136C304.245,209.659 301.176,210.536 298.235,211.75C295.273,212.97 292.746,214.277 290.655,215.671C288.564,217.065 285.776,219.679 282.291,223.512L277.063,229.262L278.109,222.466C278.806,217.935 280.025,212.795 281.768,207.044C283.511,201.293 285.253,196.501 286.996,192.668C288.739,188.835 290.829,184.913 293.269,180.906C295.709,176.899 297.887,173.674 299.804,171.235C301.721,168.796 304.857,165.571 309.214,161.564C313.571,157.557 317.23,154.681 320.192,152.938C323.154,151.195 326.204,149.888 329.34,149.017C332.476,148.146 334.568,147.274 335.613,146.403C336.658,145.532 337.268,144.312 337.443,142.744C337.618,141.176 337.53,140.043 337.182,139.346C336.834,138.649 336.136,138.039 335.091,137.516C334.046,136.993 332.825,136.732 331.432,136.732C330.039,136.732 327.163,137.167 322.806,138.039L322.806,138.042ZM170.159,148.759C172.075,148.759 174.254,149.282 176.694,150.327C179.134,151.372 181.486,153.115 183.751,155.555C186.016,157.995 188.281,161.741 190.547,166.794C192.813,171.847 194.555,177.772 195.775,184.568C196.995,191.364 197.605,198.595 197.605,206.263C197.605,213.931 197.169,219.593 196.298,223.253C195.427,226.913 193.771,230.397 191.332,233.708C188.893,237.019 185.843,239.458 182.184,241.027C178.525,242.596 175.475,243.292 173.036,243.118C170.597,242.944 168.331,242.421 166.24,241.55C164.149,240.679 161.883,239.023 159.444,236.584C157.005,234.145 154.826,230.834 152.909,226.652C150.992,222.47 149.511,217.504 148.466,211.753C147.421,206.002 146.984,199.293 147.159,191.627C147.334,183.961 148.03,177.512 149.25,172.285C150.47,167.058 151.689,163.223 152.909,160.784C154.129,158.345 155.436,156.341 156.83,154.772C158.224,153.203 160.315,151.81 163.103,150.59C165.891,149.37 168.243,148.76 170.16,148.76L170.159,148.759ZM302.941,225.605C305.206,225.605 307.21,225.866 308.953,226.389C310.696,226.912 312.874,228.305 315.488,230.571C318.102,232.837 320.28,235.799 322.023,239.458C323.766,243.117 325.072,247.561 325.944,252.788C326.816,258.015 327.164,264.898 326.99,273.437C326.816,281.976 326.031,289.381 324.638,295.654C323.245,301.927 321.763,306.545 320.195,309.507C318.627,312.469 317.058,314.735 315.49,316.303C313.922,317.871 311.656,319.178 308.694,320.224C305.732,321.27 303.205,321.705 301.114,321.531C299.023,321.357 297.193,320.921 295.625,320.224C294.057,319.527 291.878,317.697 289.09,314.735C286.302,311.773 283.949,307.678 282.033,302.45C280.117,297.222 278.809,291.995 278.112,286.767C277.415,281.539 277.153,275.44 277.328,268.47C277.503,261.5 278.286,255.314 279.68,249.912C281.074,244.51 282.555,240.502 284.123,237.888C285.691,235.274 287.172,233.27 288.566,231.876C289.96,230.482 292.138,229.088 295.101,227.694C298.064,226.3 300.677,225.603 302.942,225.603L302.941,225.605Z" style="fill:rgb(35,66,255);fill-rule:nonzero;"/>
    <g transform="matrix(4.122075,0,0,4.122075,-164.119007,-699.387424)">
        <g>
            <g transform="matrix(1,0,0,1,177,221.815)">
                <path d="M32,-26.55C32,-27.7 31.9,-29.2 31.85,-30.65C31.8,-32 31.85,-33 31.75,-34.3C31.65,-35.8 30.9,-36.05 29.4,-36.05C27.35,-36.05 23.45,-35.7 19.4,-35.7L12.45,-35.7C8.55,-35.7 4.65,-36.05 2.5,-36.05C0.7,-36.05 0.25,-35.7 0.1,-34.3C0,-33.2 0,-32.05 0,-31.05C-0.05,-29.6 -0.15,-27.55 -0.15,-26.7C-0.15,-25.45 0.7,-24.9 2.1,-24.9C3,-24.9 3.35,-25.15 4.15,-27.05C4.65,-28.2 5.5,-29.85 7.2,-30.8C8.25,-31.4 9.35,-31.6 10.4,-31.6C11.7,-31.6 11.8,-30.95 11.8,-30.2L11.8,-10.1C11.8,-7.4 11.65,-5.6 11.15,-4.55C10.15,-2.4 8.2,-2.75 8.2,-1.3C8.2,-0.45 9.05,0 10.15,0L21.7,0C22.8,0 23.65,-0.45 23.65,-1.35C23.65,-2.85 21.55,-2.4 20.6,-4.75C20.15,-5.8 20.05,-7.6 20.05,-10.1L20.05,-30.2C20.05,-30.95 20.15,-31.6 21.45,-31.6C22.6,-31.6 23.65,-31.35 24.65,-30.8C26.25,-29.95 27.25,-28.2 27.75,-27.05C28.55,-25.15 28.9,-24.85 29.8,-24.85C31.1,-24.85 32,-25.4 32,-26.55Z" style="fill:rgb(35,66,255);"/>
            </g>
            <g transform="matrix(1,0,0,1,204.25,221.815)">
                <path d="M20.85,-11.8C20.85,-7.05 19.1,-3.3 15.6,-3.3C10.6,-3.3 9.4,-11.5 9.4,-15C9.4,-20.05 11.3,-22.95 14.7,-22.95C19.8,-22.95 20.85,-15.4 20.85,-11.8ZM15.5,-26.65C7.45,-26.65 1.45,-20.4 1.45,-12.9C1.45,-4.7 7.1,0.55 15.1,0.55C22.9,0.55 28.85,-5.7 28.85,-13.2C28.85,-21 23.5,-26.65 15.5,-26.65Z" style="fill:rgb(35,66,255);"/>
                <path d="M78.75,-24.8C78.7,-25.6 78.15,-26.1 76.85,-26.1L68.6,-26.1C67.55,-26.1 66.6,-25.75 66.6,-24.7C66.6,-23.2 69.2,-23.5 69.2,-20.75C69.2,-19.8 68.95,-18.35 68.05,-15.85L65.25,-8.05C65.2,-7.9 65.1,-7.85 65,-7.85C64.9,-7.85 64.8,-7.9 64.75,-8.05L58.75,-25.75C58.6,-26.25 58.2,-26.45 57.55,-26.45L52.9,-26.45C52.3,-26.45 51.95,-26.25 51.75,-25.75L45.7,-8.2C45.65,-8.05 45.6,-7.9 45.45,-7.9C45.3,-7.9 45.25,-8.05 45.2,-8.2L41.8,-18.8C41.5,-19.75 41.35,-20.5 41.35,-21.1C41.35,-23.75 43.7,-23.4 43.7,-24.85C43.7,-25.75 42.9,-26.1 41.9,-26.1L31,-26.1C29.6,-26.1 29.15,-25.5 29.15,-24.75C29.15,-24.15 29.5,-23.75 30.1,-23.5C30.8,-23.2 31.35,-22.95 32,-22.4C32.8,-21.65 33.2,-20.55 33.8,-18.7C34.25,-17.35 38.85,-3.35 39.85,-0.2C40,0.2 40.25,0.35 40.8,0.35L46.35,0.35C46.75,0.35 47,0.2 47.15,-0.2L53.05,-17.4C53.1,-17.55 53.15,-17.7 53.3,-17.7C53.4,-17.7 53.45,-17.65 53.55,-17.4L59.4,-0.2C59.5,0.15 59.75,0.35 60.2,0.35L65.45,0.35C66,0.35 66.2,0.2 66.35,-0.2L72.1,-15.3C73,-17.65 73.9,-19.55 74.85,-20.85C76.15,-22.65 77.25,-23.1 77.95,-23.55C78.45,-23.85 78.75,-24.25 78.75,-24.8Z" style="fill:rgb(35,66,255);"/>
                <path d="M110.65,-2.8C109.7,-3.35 109.05,-4.1 108.8,-4.9C108.6,-5.6 108.3,-6.7 108.3,-10.2L108.3,-16.35C108.3,-19.05 107.95,-21.3 106.8,-23C105.2,-25.5 102.45,-26.65 99.8,-26.65C96.7,-26.65 93.75,-25.35 91.7,-22.45C91.6,-22.3 91.5,-22.2 91.4,-22.2C91.3,-22.2 91.2,-22.3 91.2,-22.55L91.2,-24.95C91.2,-26.3 90.55,-26.65 89.9,-26.65C89.4,-26.65 89,-26.55 88.45,-26.35C86.55,-25.65 84.1,-24.9 81.8,-24.35C80.65,-24.1 80.1,-23.65 80.1,-22.95C80.1,-22.1 81.15,-21.8 81.7,-21.55C82.65,-21.15 83.15,-20.7 83.45,-19.9C83.75,-19.1 83.8,-18.05 83.8,-16.6L83.8,-10.2C83.8,-6.7 83.55,-5.6 83.3,-4.9C83.05,-4.1 82.45,-3.35 81.45,-2.8C80.8,-2.4 80.25,-2.05 80.25,-1.3C80.25,-0.45 81.05,0 82.15,0L92.85,0C93.95,0 94.8,-0.45 94.8,-1.3C94.8,-2.05 94.2,-2.4 93.55,-2.8C92.55,-3.35 91.95,-4.1 91.7,-4.9C91.45,-5.6 91.2,-6.7 91.2,-10.2C91.2,-15.3 91.75,-18 93.45,-19.65C94.45,-20.65 95.7,-21 96.75,-21C99.55,-21 100.8,-19 100.8,-16.35L100.8,-10.2C100.8,-6.7 100.55,-5.6 100.3,-4.9C100,-4.1 99.45,-3.4 98.45,-2.8C97.8,-2.4 97.2,-2.05 97.2,-1.3C97.2,-0.45 98.05,0 99.15,0L109.95,0C111.05,0 111.9,-0.45 111.9,-1.3C111.9,-2.05 111.35,-2.4 110.65,-2.8Z" style="fill:rgb(35,66,255);"/>
            </g>
        </g>
        <g transform="matrix(1,0,0,1,327.7,221.815)">
            <path d="M13.05,-3.3C10.45,-3.3 8.95,-5.85 8.95,-10.3C8.95,-15.1 10.5,-22.9 15.85,-22.9C18.35,-22.9 19.85,-20.75 19.85,-16.25C19.85,-9.95 17.55,-3.3 13.05,-3.3ZM16.95,-26.65C8.95,-26.65 0.85,-20 0.85,-10.6C0.85,-4.2 4.9,0.55 11.75,0.55C21.1,0.55 27.95,-7.15 27.95,-15.9C27.95,-22 24.1,-26.65 16.95,-26.65Z" style="fill:rgb(35,66,255);fill-rule:nonzero;"/>
            <path d="M56.1,-37C55.3,-37.2 54.35,-37.35 53.35,-37.35C48.3,-37.35 40.75,-34.3 37.6,-25.65C37.5,-25.35 37.35,-25.25 36.95,-25.25L33.7,-25.25C33.15,-25.25 32.85,-25 32.75,-24.5L32.35,-22.45C32.3,-22.2 32.3,-22.15 32.3,-22.05C32.3,-21.7 32.5,-21.5 32.95,-21.5L35.8,-21.5C36.15,-21.5 36.3,-21.45 36.3,-21.25C36.3,-21.15 36.25,-20.9 36.15,-20.4C35.8,-18.6 35.45,-16.15 35.25,-14.4C33.55,-1 32.6,5.7 27.1,5.7C25.05,5.7 24.1,4.7 23.45,4.7C22.95,4.7 22.75,5.1 22.65,5.55L22.25,7.45C22.2,7.7 22.2,7.8 22.2,7.9C22.2,9.55 25.75,9.65 26.35,9.65C29.6,9.65 33.55,8.15 36.15,5.5C40.95,0.6 41.95,-5.25 43.3,-16.35C43.5,-18.1 43.75,-19.9 44,-21.1C44.05,-21.4 44.25,-21.5 44.6,-21.5C45.2,-21.5 46.05,-21.5 46.9,-21.45C47.8,-21.4 48.75,-21.3 49.75,-21.3C51.4,-21.3 51.75,-22 52.25,-23.2C52.5,-23.8 52.8,-24.45 52.8,-24.85C52.8,-25.6 51.9,-25.65 51.35,-25.65C50.25,-25.65 49,-25.45 48.15,-25.35C47.2,-25.25 46.1,-25.25 45.15,-25.25C44.9,-25.25 44.8,-25.35 44.8,-25.5C44.8,-25.55 44.8,-25.6 44.85,-25.8C45.7,-29.75 47.2,-33.35 50.55,-33.35C53.85,-33.35 55.4,-29.25 57.65,-29.25C59.35,-29.25 59.95,-30.65 59.95,-32.3C59.95,-34.8 58.65,-36.3 56.1,-37Z" style="fill:rgb(35,66,255);fill-rule:nonzero;"/>
        </g>
        <g>
            <g transform="matrix(1,0,0,1,177,270.249)">
                <path d="M37.6,-35.7L28.1,-35.7C26.75,-35.7 26,-35.2 26,-34.35C26,-33.35 27.3,-33.05 28.3,-32.5C29.35,-31.95 30.35,-31.25 30.6,-27.05C30.8,-23.7 30.8,-17.05 30.8,-11.55C30.8,-11.35 30.7,-11.25 30.55,-11.25C30.4,-11.25 30.3,-11.4 30.2,-11.55L14.45,-34.45C13.85,-35.3 13.15,-35.7 11.85,-35.7L3.7,-35.7C2.6,-35.7 1.65,-35.3 1.65,-34.3C1.65,-33.15 2.85,-33 4.3,-32.25C5.1,-31.85 5.8,-31.25 6,-31.05C6.25,-30.8 6.3,-30.6 6.3,-30.2C6.3,-29.1 6.2,-10.15 6.1,-8.65C5.75,-4.35 4.5,-3.65 3.25,-3C2.55,-2.65 1.3,-2.35 1.3,-1.3C1.3,-0.6 1.85,0 3.35,0L13.75,0C15.1,0 15.85,-0.55 15.85,-1.4C15.85,-2.55 14.25,-2.85 13.4,-3.3C12.4,-3.8 10.85,-4.65 10.6,-8.65C10.5,-10.85 10.5,-20.35 10.5,-24.35C10.5,-24.55 10.6,-24.65 10.7,-24.65C10.85,-24.65 10.95,-24.5 11.05,-24.35L27.55,-0.5C27.95,0.1 28.5,0.4 29.35,0.4L34.05,0.4C34.6,0.4 34.95,0.05 34.95,-0.4C34.95,-2.15 34.95,-23.7 35.2,-27.05C35.5,-31.3 36.45,-32.05 37.7,-32.7C38.4,-33.05 39.65,-33.4 39.65,-34.45C39.65,-35.15 39.1,-35.7 37.6,-35.7Z" style="fill:rgb(35,66,255);"/>
                <path d="M54.6,-33.2C54.6,-34.7 51.35,-37.95 49.85,-37.95C48.3,-37.95 45.05,-34.7 45.05,-33.2C45.05,-31.7 48.3,-28.4 49.85,-28.4C51.35,-28.4 54.6,-31.65 54.6,-33.2ZM55.9,-2.75C54.95,-3.3 54.35,-4.05 54.05,-4.9C53.8,-5.6 53.55,-6.7 53.55,-10.15L53.55,-24.95C53.55,-26.3 52.9,-26.65 52.25,-26.65C51.75,-26.65 51.25,-26.45 50.95,-26.35C49.15,-25.7 46.3,-24.9 44,-24.35C42.85,-24.05 42.35,-23.7 42.35,-23C42.35,-22.1 43.35,-21.85 43.9,-21.6C44.9,-21.2 45.45,-20.75 45.75,-19.95C46.05,-19.15 46.1,-18.1 46.1,-16.65L46.1,-10.15C46.1,-6.65 45.85,-5.6 45.6,-4.9C45.3,-4.05 44.7,-3.3 43.75,-2.75C43.05,-2.35 42.5,-2.05 42.5,-1.3C42.5,-0.45 43.35,0 44.45,0L55.2,0C56.3,0 57.15,-0.45 57.15,-1.3C57.15,-2.1 56.55,-2.35 55.9,-2.75Z" style="fill:rgb(35,66,255);"/>
            </g>
            <g transform="matrix(1,0,0,1,235.6,270.249)">
                <path d="M32.1,-2.8C31.15,-3.35 30.5,-4.1 30.25,-4.9C30.05,-5.6 29.75,-6.7 29.75,-10.2L29.75,-16.35C29.75,-19.05 29.4,-21.3 28.25,-23C26.65,-25.5 23.9,-26.65 21.25,-26.65C18.15,-26.65 15.2,-25.35 13.15,-22.45C13.05,-22.3 12.95,-22.2 12.85,-22.2C12.75,-22.2 12.65,-22.3 12.65,-22.55L12.65,-24.95C12.65,-26.3 12,-26.65 11.35,-26.65C10.85,-26.65 10.45,-26.55 9.9,-26.35C8,-25.65 5.55,-24.9 3.25,-24.35C2.1,-24.1 1.55,-23.65 1.55,-22.95C1.55,-22.1 2.6,-21.8 3.15,-21.55C4.1,-21.15 4.6,-20.7 4.9,-19.9C5.2,-19.1 5.25,-18.05 5.25,-16.6L5.25,-10.2C5.25,-6.7 5,-5.6 4.75,-4.9C4.5,-4.1 3.9,-3.35 2.9,-2.8C2.25,-2.4 1.7,-2.05 1.7,-1.3C1.7,-0.45 2.5,0 3.6,0L14.3,0C15.4,0 16.25,-0.45 16.25,-1.3C16.25,-2.05 15.65,-2.4 15,-2.8C14,-3.35 13.4,-4.1 13.15,-4.9C12.9,-5.6 12.65,-6.7 12.65,-10.2C12.65,-15.3 13.2,-18 14.9,-19.65C15.9,-20.65 17.15,-21 18.2,-21C21,-21 22.25,-19 22.25,-16.35L22.25,-10.2C22.25,-6.7 22,-5.6 21.75,-4.9C21.45,-4.1 20.9,-3.4 19.9,-2.8C19.25,-2.4 18.65,-2.05 18.65,-1.3C18.65,-0.45 19.5,0 20.6,0L31.4,0C32.5,0 33.35,-0.45 33.35,-1.3C33.35,-2.05 32.8,-2.4 32.1,-2.8Z" style="fill:rgb(35,66,255);"/>
                <path d="M43.5,-17.7C44.05,-20.85 46.05,-22.9 48.85,-22.9C51.4,-22.9 52.9,-20.85 52.9,-19C52.9,-17.1 51.55,-16.8 49.75,-16.8L43.95,-16.8C43.6,-16.8 43.45,-17 43.45,-17.25C43.45,-17.35 43.45,-17.4 43.5,-17.7ZM58.7,-6.6C57.5,-6.6 56.1,-4.55 52.15,-4.55C49.15,-4.55 46.55,-5.65 44.85,-8.3C43.8,-9.95 43.6,-11.55 43.55,-12.05C43.5,-12.45 43.5,-12.55 43.5,-12.65C43.5,-13 43.75,-13.1 44.05,-13.1L56.05,-13.1C59,-13.1 60.3,-13.55 60.3,-16.45C60.3,-22.7 54.75,-26.65 49.1,-26.65C41.3,-26.65 35.75,-19.85 35.75,-12.35C35.75,-4.5 41.25,0.55 48.55,0.55C51.55,0.55 54.55,-0.35 56.8,-1.85C58.3,-2.85 59.8,-4.45 59.8,-5.55C59.8,-6.15 59.25,-6.6 58.7,-6.6Z" style="fill:rgb(35,66,255);"/>
                <path d="M81.65,-5.95C80.6,-5.95 79.8,-4.4 77.8,-4.4C76.7,-4.4 75.15,-5 74.45,-7.15C73.85,-9 73.7,-13 73.7,-16.7C73.7,-18.2 73.7,-19.65 73.75,-20.85C73.75,-21.2 73.95,-21.4 74.3,-21.4C75.05,-21.4 76.1,-21.4 76.9,-21.35C77.8,-21.3 78.7,-21.2 79.45,-21.2C81.05,-21.2 81.45,-21.75 81.75,-23.05C81.85,-23.55 82.05,-24.15 82.05,-24.55C82.05,-25.5 80.9,-25.55 80.3,-25.55C79.35,-25.55 78.35,-25.4 77.45,-25.3C76.6,-25.2 76,-25.15 75.15,-25.15C73.95,-25.15 73.85,-25.3 73.85,-26.65L73.85,-31.35C73.85,-31.8 73.55,-32.1 73.1,-32.1L69.85,-32.1C69.35,-32.1 69.1,-31.85 69,-31.3C68.8,-30.3 68.65,-28.9 67.8,-27.7C67,-26.55 65.6,-25.6 63.05,-25.2C62.45,-25.1 62.2,-24.8 62.2,-24.35L62.2,-22.2C62.2,-21.7 62.5,-21.4 62.95,-21.4L66,-21.4C66.4,-21.4 66.55,-21.25 66.55,-20.85C66.45,-16.3 66.05,-12.95 66.05,-9.65C66.05,-6.95 66.35,-4.95 67.2,-3.35C68.35,-1.2 70.75,0.55 74.45,0.55C77.5,0.55 80.45,-0.9 82,-3.2C82.4,-3.75 82.65,-4.4 82.65,-4.9C82.65,-5.5 82.2,-5.95 81.65,-5.95Z" style="fill:rgb(35,66,255);"/>
                <path d="M112.65,-26.1L104.6,-26.1C103.65,-26.1 102.65,-25.75 102.65,-24.75C102.65,-23.2 105.3,-23.65 105.3,-20.65C105.3,-19.7 105.05,-18.25 104.1,-16L101.05,-8.7C100.95,-8.45 100.9,-8.4 100.8,-8.4C100.7,-8.4 100.65,-8.45 100.55,-8.7C100.55,-8.7 96.25,-18.45 95.65,-19.8C95.35,-20.5 95.1,-21.15 95.1,-21.65C95.1,-22.7 95.85,-23.2 96.45,-23.5C97.05,-23.8 97.6,-24.1 97.6,-24.85C97.6,-25.65 96.85,-26.1 95.85,-26.1L85.15,-26.1C83.7,-26.1 83.25,-25.45 83.25,-24.75C83.25,-24.15 83.65,-23.8 84.15,-23.55C84.65,-23.3 85.3,-23.05 85.75,-22.6C86.6,-21.75 86.9,-21.1 87.85,-18.85L96.3,1C96.4,1.25 96.4,1.4 96.4,1.45C96.4,1.5 96.4,1.7 96.15,2.1C95.4,3.25 94.45,4.2 92.95,4.2C90,4.2 89.4,1.2 87.5,1.2C85.5,1.2 85,3.15 85,4.6C85,7.7 87.15,9.65 90.45,9.65C96.7,9.65 100.25,3.8 102.3,-1.15C103.95,-5.15 106.25,-11.1 108.1,-15.35C108.85,-17.15 109.7,-19.2 110.75,-20.75C112.05,-22.65 113.1,-23.05 113.85,-23.6C114.3,-23.9 114.6,-24.25 114.6,-24.8C114.6,-25.7 113.7,-26.1 112.65,-26.1Z" style="fill:rgb(35,66,255);"/>
                <path d="M150.95,-33.5C149.05,-35.3 145.1,-36.3 141.3,-36.3C133.15,-36.3 127.55,-31.35 127.55,-25.25C127.55,-13.6 146.1,-16.4 146.1,-8.55C146.1,-6.95 145.3,-5.75 144.4,-4.95C143.3,-4 141.65,-3.65 140.2,-3.65C136.65,-3.65 134.4,-5.7 132.7,-7.5C130.1,-10.25 129.75,-12.1 128.05,-12.1C127.1,-12.1 126.15,-11.35 126.15,-9.8C126.15,-9.2 126.25,-8.55 126.25,-7.9C126.25,-6.45 126.4,-4.8 127.25,-3.45C128.85,-0.95 133.95,0.55 139,0.55C147.55,0.55 153.85,-4.3 153.85,-11.1C153.85,-23.9 135.25,-20.5 135.25,-28.15C135.25,-30.95 137.65,-32.3 140,-32.3C143.05,-32.3 145,-30.25 146.45,-28.55C148.05,-26.65 148.7,-25.2 150.25,-25.2C152.1,-25.2 152.2,-27.1 152.2,-28.65C152.2,-30.35 151.9,-32.55 150.95,-33.5Z" style="fill:rgb(35,66,255);"/>
                <path d="M169.5,-33.2C169.5,-34.7 166.25,-37.95 164.75,-37.95C163.2,-37.95 159.95,-34.7 159.95,-33.2C159.95,-31.7 163.2,-28.4 164.75,-28.4C166.25,-28.4 169.5,-31.65 169.5,-33.2ZM170.8,-2.75C169.85,-3.3 169.25,-4.05 168.95,-4.9C168.7,-5.6 168.45,-6.7 168.45,-10.15L168.45,-24.95C168.45,-26.3 167.8,-26.65 167.15,-26.65C166.65,-26.65 166.15,-26.45 165.85,-26.35C164.05,-25.7 161.2,-24.9 158.9,-24.35C157.75,-24.05 157.25,-23.7 157.25,-23C157.25,-22.1 158.25,-21.85 158.8,-21.6C159.8,-21.2 160.35,-20.75 160.65,-19.95C160.95,-19.15 161,-18.1 161,-16.65L161,-10.15C161,-6.65 160.75,-5.6 160.5,-4.9C160.2,-4.05 159.6,-3.3 158.65,-2.75C157.95,-2.35 157.4,-2.05 157.4,-1.3C157.4,-0.45 158.25,0 159.35,0L170.1,0C171.2,0 172.05,-0.45 172.05,-1.3C172.05,-2.1 171.45,-2.35 170.8,-2.75Z" style="fill:rgb(35,66,255);"/>
                <path d="M202.55,-2.9C200.6,-3.9 199.85,-4.8 197.6,-7.75L194.3,-12.1C194.15,-12.3 194.1,-12.45 194.1,-12.6C194.1,-12.75 194.2,-12.9 194.3,-13.05C195.35,-14.65 196.4,-16.05 196.9,-16.7C199.5,-20.05 201.2,-21.85 202.6,-22.85C203.7,-23.65 204.4,-24 204.4,-24.8C204.4,-25.65 203.75,-26.1 202.5,-26.1L193.6,-26.1C192.55,-26.1 191.85,-25.7 191.85,-24.85C191.85,-23.45 194.3,-23.65 194.3,-21.55C194.3,-20.1 192.8,-17.85 191.75,-16.25C191.65,-16.1 191.55,-16 191.45,-16C191.35,-16 191.25,-16.05 191.1,-16.25L190,-17.75C188.4,-19.95 187.6,-21.2 187.6,-22.15C187.6,-23.7 189.4,-23.7 189.4,-24.9C189.4,-25.6 188.8,-26.1 187.65,-26.1L175.4,-26.1C174.2,-26.1 173.65,-25.6 173.65,-24.8C173.65,-23.7 174.85,-23.45 175.7,-23.05C177.6,-22.15 178.25,-21.3 180.5,-18.35L183.7,-14.1C183.85,-13.9 183.95,-13.7 183.95,-13.5C183.95,-13.35 183.9,-13.15 183.75,-12.95L181.1,-9.4C178.55,-6 176.9,-4.3 175.4,-3.2C174.35,-2.45 173.65,-2.05 173.65,-1.25C173.65,-0.45 174.25,0 175.5,0L184.45,0C185.5,0 186.15,-0.4 186.15,-1.25C186.15,-2.55 183.7,-2.5 183.7,-4.6C183.7,-6 185.3,-8.35 186.25,-9.75C186.4,-9.95 186.5,-10.05 186.65,-10.05C186.75,-10.05 186.8,-10 186.9,-9.9L188.1,-8.3C189.7,-6.1 190.5,-4.9 190.5,-3.95C190.5,-2.45 188.7,-2.35 188.7,-1.15C188.7,-0.5 189.3,0 190.45,0L202.7,0C203.85,0 204.4,-0.5 204.4,-1.25C204.4,-2.25 203.35,-2.5 202.55,-2.9Z" style="fill:rgb(35,66,255);"/>
            </g>
        </g>
    </g>
</svg>
