<svg version="1.0" xmlns="http://www.w3.org/2000/svg"
 width="600.000000pt" height="600.000000pt" viewBox="0 0 600.000000 600.000000"
 preserveAspectRatio="xMidYMid meet"><path xmlns="http://www.w3.org/2000/svg" d="M2875 5991 c-119 -19 -250 -72 -354 -143 -78 -54 -181 -166 -311&#10;-338 -150 -199 -211 -262 -287 -298 -56 -26 -64 -27 -223 -27 -91 1 -248 2&#10;-350 4 -163 3 -194 1 -265 -18 -260 -69 -441 -247 -512 -503 -12 -45 -17 -98&#10;-16 -188 0 -108 6 -150 42 -312 60 -272 55 -377 -21 -493 -18 -28 -114 -133&#10;-213 -235 -227 -232 -295 -332 -342 -504 -27 -96 -24 -281 6 -376 75 -240 213&#10;-392 527 -580 199 -119 261 -165 307 -228 71 -95 85 -162 117 -527 11 -132 29&#10;-279 40 -326 101 -464 523 -724 965 -594 97 28 256 104 430 205 268 155 406&#10;203 580 204 182 0 305 -42 602 -210 297 -167 436 -221 603 -231 294 -18 573&#10;145 708 413 69 137 90 242 122 612 22 255 36 327 83 415 40 76 109 136 246&#10;217 269 157 379 241 472 357 174 219 217 501 115 752 -48 117 -131 226 -329&#10;428 -159 163 -193 203 -220 260 -31 65 -32 73 -31 188 0 103 6 144 39 285 33&#10;142 38 182 39 285 0 209 -59 361 -194 495 -177 177 -364 231 -714 209 -93 -6&#10;-219 -9 -280 -7 -191 6 -245 45 -463 333 -134 177 -228 277 -317 337 -75 51&#10;-183 101 -266 122 -75 19 -261 29 -335 17z m242 -551 c65 -29 131 -97 265&#10;-274 166 -217 227 -287 314 -356 90 -72 193 -123 299 -150 96 -25 245 -29 550&#10;-16 232 10 266 5 319 -43 66 -61 71 -129 21 -327 -83 -329 -85 -506 -7 -706&#10;53 -138 127 -234 345 -448 164 -161 203 -206 229 -258 27 -55 30 -69 25 -123&#10;-9 -102 -74 -176 -244 -280 -328 -200 -446 -296 -542 -443 -103 -159 -139&#10;-299 -171 -663 -11 -133 -25 -265 -30 -293 -32 -170 -128 -250 -284 -238 -74&#10;6 -179 53 -376 167 -430 249 -734 315 -1105 240 -172 -35 -325 -100 -563 -238&#10;-153 -89 -265 -146 -317 -160 -107 -29 -219 3 -274 79 -51 71 -63 134 -91 480&#10;-34 412 -102 586 -311 785 -83 79 -168 139 -375 265 -123 75 -216 155 -247&#10;214 -15 28 -21 59 -21 101 -1 96 30 141 242 349 101 100 206 210 233 246 108&#10;144 165 292 176 462 8 122 -7 235 -58 440 -55 220 -51 291 19 350 57 48 86 52&#10;322 42 421 -18 545 -6 699 66 159 75 261 176 503 500 148 199 218 250 343 250&#10;48 0 83 -7 112 -20z"/></svg>